<svg id="visual" viewBox="0 0 900 600" width="900" height="600" xmlns="http://www.w3.org/2000/svg" xmlns:xlink="http://www.w3.org/1999/xlink" version="1.1"><rect x="0" y="0" width="900" height="600" fill="#430A5D"></rect><defs><linearGradient id="grad1_0" x1="33.3%" y1="100%" x2="100%" y2="0%"><stop offset="20%" stop-color="#5f374b" stop-opacity="1"></stop><stop offset="80%" stop-color="#5f374b" stop-opacity="1"></stop></linearGradient></defs><defs><linearGradient id="grad1_1" x1="33.3%" y1="100%" x2="100%" y2="0%"><stop offset="20%" stop-color="#5f374b" stop-opacity="1"></stop><stop offset="80%" stop-color="#5d2b4c" stop-opacity="1"></stop></linearGradient></defs><defs><linearGradient id="grad1_2" x1="33.3%" y1="100%" x2="100%" y2="0%"><stop offset="20%" stop-color="#591f50" stop-opacity="1"></stop><stop offset="80%" stop-color="#5d2b4c" stop-opacity="1"></stop></linearGradient></defs><defs><linearGradient id="grad1_3" x1="33.3%" y1="100%" x2="100%" y2="0%"><stop offset="20%" stop-color="#591f50" stop-opacity="1"></stop><stop offset="80%" stop-color="#501456" stop-opacity="1"></stop></linearGradient></defs><defs><linearGradient id="grad1_4" x1="33.3%" y1="100%" x2="100%" y2="0%"><stop offset="20%" stop-color="#430a5d" stop-opacity="1"></stop><stop offset="80%" stop-color="#501456" stop-opacity="1"></stop></linearGradient></defs><defs><linearGradient id="grad2_0" x1="0%" y1="100%" x2="66.7%" y2="0%"><stop offset="20%" stop-color="#5f374b" stop-opacity="1"></stop><stop offset="80%" stop-color="#5f374b" stop-opacity="1"></stop></linearGradient></defs><defs><linearGradient id="grad2_1" x1="0%" y1="100%" x2="66.7%" y2="0%"><stop offset="20%" stop-color="#5d2b4c" stop-opacity="1"></stop><stop offset="80%" stop-color="#5f374b" stop-opacity="1"></stop></linearGradient></defs><defs><linearGradient id="grad2_2" x1="0%" y1="100%" x2="66.7%" y2="0%"><stop offset="20%" stop-color="#5d2b4c" stop-opacity="1"></stop><stop offset="80%" stop-color="#591f50" stop-opacity="1"></stop></linearGradient></defs><defs><linearGradient id="grad2_3" x1="0%" y1="100%" x2="66.7%" y2="0%"><stop offset="20%" stop-color="#501456" stop-opacity="1"></stop><stop offset="80%" stop-color="#591f50" stop-opacity="1"></stop></linearGradient></defs><defs><linearGradient id="grad2_4" x1="0%" y1="100%" x2="66.7%" y2="0%"><stop offset="20%" stop-color="#501456" stop-opacity="1"></stop><stop offset="80%" stop-color="#430a5d" stop-opacity="1"></stop></linearGradient></defs><g transform="translate(900, 600)"><path d="M-378.6 0C-374.6 -50.6 -370.7 -101.2 -349.8 -144.9C-328.8 -188.6 -291 -225.4 -251.7 -251.7C-212.5 -278 -171.9 -293.8 -129.7 -313.2C-87.5 -332.6 -43.8 -355.6 0 -378.6L0 0Z" fill="#4a0e59"></path><path d="M-302.9 0C-299.7 -40.5 -296.5 -80.9 -279.8 -115.9C-263.1 -150.9 -232.8 -180.3 -201.4 -201.4C-170 -222.4 -137.5 -235 -103.8 -250.6C-70 -266.1 -35 -284.5 0 -302.9L0 0Z" fill="#551953"></path><path d="M-227.1 0C-224.8 -30.4 -222.4 -60.7 -209.9 -86.9C-197.3 -113.2 -174.6 -135.3 -151 -151C-127.5 -166.8 -103.1 -176.3 -77.8 -187.9C-52.5 -199.5 -26.3 -213.3 0 -227.1L0 0Z" fill="#5b254e"></path><path d="M-151.4 0C-149.9 -20.2 -148.3 -40.5 -139.9 -58C-131.5 -75.4 -116.4 -90.2 -100.7 -100.7C-85 -111.2 -68.8 -117.5 -51.9 -125.3C-35 -133 -17.5 -142.2 0 -151.4L0 0Z" fill="#5e314b"></path><path d="M-75.7 0C-74.9 -10.1 -74.1 -20.2 -70 -29C-65.8 -37.7 -58.2 -45.1 -50.3 -50.3C-42.5 -55.6 -34.4 -58.8 -25.9 -62.6C-17.5 -66.5 -8.8 -71.1 0 -75.7L0 0Z" fill="#5f374b"></path></g><g transform="translate(0, 0)"><path d="M378.6 0C373.3 49.3 368 98.6 349.8 144.9C331.6 191.2 300.5 234.4 261.6 261.6C222.8 288.9 176.2 300.1 131.3 316.9C86.4 333.7 43.2 356.1 0 378.6L0 0Z" fill="#4a0e59"></path><path d="M302.9 0C298.6 39.4 294.4 78.9 279.8 115.9C265.3 152.9 240.4 187.5 209.3 209.3C178.2 231.1 140.9 240.1 105 253.5C69.1 267 34.5 284.9 0 302.9L0 0Z" fill="#551953"></path><path d="M227.1 0C224 29.6 220.8 59.2 209.9 86.9C198.9 114.7 180.3 140.6 157 157C133.7 173.3 105.7 180 78.8 190.1C51.8 200.2 25.9 213.7 0 227.1L0 0Z" fill="#5b254e"></path><path d="M151.4 0C149.3 19.7 147.2 39.4 139.9 58C132.6 76.5 120.2 93.8 104.7 104.7C89.1 115.5 70.5 120 52.5 126.8C34.5 133.5 17.3 142.5 0 151.4L0 0Z" fill="#5e314b"></path><path d="M75.7 0C74.7 9.9 73.6 19.7 70 29C66.3 38.2 60.1 46.9 52.3 52.3C44.6 57.8 35.2 60 26.3 63.4C17.3 66.7 8.6 71.2 0 75.7L0 0Z" fill="#5f374b"></path></g></svg>